<svg width="13" height="17" viewBox="0 0 13 17" fill="none" xmlns="http://www.w3.org/2000/svg">
<path d="M11.323 9.06381L7.94802 13.8451C7.84235 13.9948 7.69902 14.0789 7.54958 14.0789C7.40014 14.0789 7.25682 13.9948 7.15114 13.8451C7.04547 13.6954 6.9861 13.4923 6.9861 13.2806C6.9861 13.0689 7.04547 12.8659 7.15114 12.7162L9.56567 9.2969H2.67505C2.52586 9.2969 2.38279 9.21294 2.2773 9.0635C2.17181 8.91406 2.11255 8.71137 2.11255 8.50002C2.11255 8.28868 2.17181 8.08599 2.2773 7.93655C2.38279 7.78711 2.52586 7.70315 2.67505 7.70315H9.56567L7.15208 4.2819C7.04641 4.1322 6.98704 3.92916 6.98704 3.71745C6.98704 3.50574 7.04641 3.3027 7.15208 3.15299C7.25775 3.00329 7.40107 2.91919 7.55052 2.91919C7.69996 2.91919 7.84328 3.00329 7.94895 3.15299L11.324 7.93424C11.3764 8.00838 11.418 8.09646 11.4464 8.19343C11.4747 8.2904 11.4893 8.39435 11.4892 8.4993C11.4891 8.60426 11.4744 8.70816 11.4458 8.80504C11.4173 8.90192 11.3756 8.98986 11.323 9.06381Z" fill="white"/>
</svg>
